<?xml version="1.0" standalone="no"?>
<!DOCTYPE svg PUBLIC "-//W3C//DTD SVG 20010904//EN"
 "http://www.w3.org/TR/2001/REC-SVG-20010904/DTD/svg10.dtd">
<svg version="1.0" xmlns="http://www.w3.org/2000/svg"
 width="328.000000pt" height="202.000000pt" viewBox="0 0 328.000000 202.000000"
 preserveAspectRatio="xMidYMid meet">

<g transform="translate(0.000000,202.000000) scale(0.100000,-0.100000)"
fill="#000000" stroke="none">
<path d="M1900 1810 c-14 -5 -151 -28 -305 -50 -154 -22 -328 -49 -387 -60
-59 -12 -149 -24 -199 -29 -89 -8 -95 -8 -130 16 -35 23 -39 23 -73 9 -27 -11
-36 -21 -36 -39 0 -37 -35 -108 -110 -226 -88 -135 -105 -174 -85 -191 8 -7
15 -18 15 -24 0 -14 61 -63 93 -75 41 -16 106 11 128 51 9 16 6 25 -11 43 -29
31 -21 66 32 141 23 31 51 75 63 98 l21 40 135 23 c212 36 481 74 486 69 3 -2
-36 -32 -86 -65 -49 -33 -93 -67 -98 -74 -4 -7 -75 -65 -157 -128 -82 -62
-200 -158 -262 -211 l-113 -98 -163 -34 c-90 -19 -230 -53 -311 -75 -82 -23
-161 -41 -175 -41 -15 0 -33 -4 -41 -9 -12 -8 -12 -12 3 -26 9 -9 26 -35 37
-57 15 -30 24 -38 37 -33 9 4 40 10 67 15 28 5 107 25 178 44 152 42 197 51
197 40 -1 -5 -14 -24 -30 -43 -16 -19 -27 -37 -25 -40 8 -7 65 51 65 65 0 16
50 55 61 48 5 -3 9 2 9 11 0 15 11 21 79 43 l34 11 -23 -24 c-12 -13 -58 -60
-101 -105 -44 -45 -79 -88 -79 -95 0 -8 -12 -22 -26 -32 -14 -9 -47 -49 -73
-88 -81 -122 -131 -166 -131 -115 0 12 10 25 25 32 14 6 25 19 25 28 0 23 29
80 41 80 5 0 9 5 9 12 0 7 16 29 36 49 20 21 34 43 32 50 -4 12 -73 -71 -135
-162 -36 -52 -113 -206 -113 -225 0 -25 51 -54 94 -54 23 0 47 -5 53 -11 8 -8
13 -8 17 0 4 6 18 11 31 11 16 0 35 14 57 42 42 53 102 115 153 157 49 40 50
40 -104 -48 -69 -39 -131 -71 -139 -71 -14 0 -7 16 44 96 18 29 18 29 -1 14
-13 -10 -7 6 20 55 48 87 67 117 122 182 24 28 43 54 43 57 0 3 42 47 93 99
88 90 95 94 152 106 217 42 310 52 530 57 l230 6 -95 -62 c-131 -86 -218 -159
-273 -229 -53 -67 -62 -86 -71 -158 -6 -48 -4 -54 25 -87 17 -20 59 -49 93
-66 59 -29 71 -31 177 -32 143 -2 236 14 352 58 51 20 115 40 142 45 57 11
228 96 220 109 -3 5 21 23 55 40 33 17 85 46 115 65 30 19 58 35 64 35 5 0 16
6 23 13 7 7 33 27 58 44 25 17 62 50 84 73 32 35 37 46 32 72 -3 18 -1 37 5
44 9 10 8 21 0 42 -7 16 -14 43 -16 61 -2 19 -11 38 -19 45 -8 6 -21 28 -30
49 -14 35 -14 38 2 44 89 33 231 98 268 123 25 16 48 30 51 30 14 0 106 86
119 113 31 59 -2 180 -57 211 -49 27 -192 15 -381 -31 -81 -19 -154 -33 -163
-29 -8 3 -15 15 -15 26 0 33 -52 50 -104 35 -63 -19 -262 -111 -341 -157 -74
-43 -204 -138 -224 -162 -7 -8 -28 -20 -46 -26 -58 -19 -351 -197 -341 -207 3
-3 48 13 100 36 117 52 214 84 226 76 6 -4 10 -16 10 -28 0 -12 18 -46 40 -75
22 -29 40 -54 40 -57 0 -2 -16 -16 -35 -31 l-35 -26 -217 1 c-196 2 -436 -9
-550 -25 -27 -3 -43 -1 -43 5 0 6 7 11 16 11 13 0 256 191 250 198 -4 4 -70
-30 -91 -47 -19 -15 -19 -15 -5 2 18 24 88 59 101 51 6 -3 27 7 47 23 20 17
48 36 61 43 21 11 23 10 18 -4 -4 -9 -4 -16 0 -16 3 0 74 45 157 100 83 54
192 118 241 140 50 23 113 52 140 65 28 14 70 31 94 40 76 26 85 45 55 109
-12 24 -25 36 -47 40 -39 8 -76 6 -107 -4z m970 -215 c73 -25 45 -52 -141
-135 -62 -27 -117 -50 -122 -50 -5 0 -23 -6 -40 -14 -163 -74 -677 -213 -677
-183 0 4 37 31 83 60 95 63 318 166 427 197 91 27 125 50 140 94 9 27 18 36
48 44 45 12 234 3 282 -13z m-1722 -319 c-10 -7 -15 -16 -11 -19 3 -4 1 -7 -6
-7 -14 0 -101 -79 -101 -92 0 -5 10 -4 23 2 16 8 15 5 -8 -15 -16 -14 -43 -36
-60 -47 l-30 -22 19 22 c11 12 15 22 9 22 -12 0 -84 -56 -95 -73 -4 -6 -10 -8
-14 -4 -4 4 6 17 22 29 16 13 40 34 54 48 48 48 195 170 205 170 6 -1 2 -7 -7
-14z m1485 -57 c-6 -6 -17 -8 -24 -3 -9 5 -8 9 7 14 23 9 31 3 17 -11z m-113
-87 c0 -4 14 -13 31 -21 36 -16 46 -36 27 -53 -31 -30 -139 -108 -218 -160
-188 -121 -525 -278 -599 -278 -15 0 -32 -5 -38 -11 -13 -13 -211 -48 -276
-49 -56 0 -68 16 -45 64 23 47 108 136 169 177 60 40 153 94 157 91 1 -1 34
14 73 34 99 50 401 172 479 194 65 18 240 27 240 12z m171 -201 c-16 -29 -260
-201 -285 -201 -4 0 -36 -14 -72 -31 -106 -52 -82 -27 32 32 57 30 155 91 217
135 62 45 113 82 115 83 1 1 -2 -7 -7 -18z m-274 -122 c-22 -11 -41 -18 -44
-16 -6 7 48 36 67 36 8 0 -2 -9 -23 -20z m-182 -109 c-3 -5 -11 -10 -16 -10
-6 0 -7 5 -4 10 3 6 11 10 16 10 6 0 7 -4 4 -10z m-55 -20 c-20 -13 -33 -13
-25 0 3 6 14 10 23 10 15 0 15 -2 2 -10z m50 -30 c-20 -13 -33 -13 -25 0 3 6
14 10 23 10 15 0 15 -2 2 -10z"/>
</g>
</svg>
