<?xml version="1.0" encoding="iso-8859-1"?>
<!-- Generator: Adobe Illustrator 19.0.0, SVG Export Plug-In . SVG Version: 6.00 Build 0)  -->
<svg version="1.1" id="Capa_1" xmlns="http://www.w3.org/2000/svg" xmlns:xlink="http://www.w3.org/1999/xlink" x="0px" y="0px"
	 viewBox="0 0 512 512" style="enable-background:new 0 0 512 512;" xml:space="preserve">
<g>
	<g>
		<path d="M453.917,323.288c0-4.156-1.619-8.063-4.558-11.002l-91.178-91.179c-2.939-2.939-6.846-4.557-11.002-4.557
			s-8.063,1.618-11.002,4.557l-23.19,23.19l-0.751-0.751c-0.363-13.034-0.38-20.806-0.38-21.116v-16.118
			c0-14.838-5.827-28.332-15.298-38.345l21.733-21.732l0.001-0.001c0,0,0,0,0.001-0.001L426.565,37.958
			c2.929-2.929,2.929-7.677,0-10.606c-2.929-2.929-7.678-2.929-10.606,0l-0.395,0.396l-23.19-23.191
			C389.435,1.618,385.528,0,381.372,0s-8.063,1.618-11.002,4.557l-91.18,91.179c-6.065,6.066-6.065,15.937,0,22.004l23.19,23.19
			l-17.557,17.557c-8.42-5.094-18.285-8.03-28.824-8.03s-20.403,2.937-28.824,8.03l-88.823-88.823
			c-2.929-2.929-7.678-2.929-10.606,0c-2.929,2.929-2.929,7.678,0,10.606l60.66,60.66l-23.19,23.19
			c-0.041,0.041-0.164,0.164-0.396,0.164s-0.355-0.123-0.396-0.164L73.248,72.941c-0.041-0.041-0.164-0.164-0.164-0.396
			s0.124-0.355,0.164-0.396l23.19-23.19l9.518,9.518c1.464,1.464,3.384,2.197,5.303,2.197s3.839-0.732,5.303-2.197
			c2.929-2.929,2.929-7.677,0-10.606l-20.52-20.52c-2.929-2.929-7.678-2.929-10.606,0c-2.929,2.929-2.929,7.677,0,10.606
			l0.395,0.396l-23.19,23.19c-2.939,2.938-4.558,6.846-4.558,11.002s1.619,8.063,4.558,11.002l91.178,91.179
			c2.939,2.939,6.846,4.558,11.002,4.558s8.063-1.618,11.002-4.558l23.19-23.19l16.43,16.43
			c-9.472,10.013-15.298,23.507-15.298,38.345v16.118c0,0.105-0.007,7.942-0.363,21.099L85.435,357.875
			c-2.929,2.929-2.929,7.678,0,10.606c1.464,1.465,3.384,2.197,5.303,2.197c1.919,0,3.839-0.732,5.303-2.197l0.396-0.396
			l23.19,23.19c2.939,2.939,6.846,4.558,11.002,4.558c4.156,0,8.064-1.619,11.002-4.558l52.313-52.313
			c-4.174,43.598-10.142,82.377-17.785,115.495c-0.127,0.553-0.192,1.119-0.192,1.687V497H159.29c-4.142,0-7.5,3.358-7.5,7.5
			c0,4.142,3.358,7.5,7.5,7.5h193.42c4.142,0,7.5-3.358,7.5-7.5c0-4.142-3.358-7.5-7.5-7.5h-16.678v-40.855
			c0-0.568-0.064-1.133-0.192-1.687c-15.218-65.944-20.781-142.334-22.815-188.91l7.349,7.349c1.464,1.464,3.384,2.197,5.303,2.197
			s3.839-0.732,5.303-2.197c2.929-2.929,2.929-7.677,0-10.606l-7.388-7.388l23.19-23.19c0.041-0.041,0.164-0.164,0.396-0.164
			s0.355,0.123,0.396,0.164l91.179,91.179c0.041,0.041,0.164,0.164,0.164,0.396s-0.124,0.354-0.164,0.396l-23.19,23.189
			l-62.668-62.668c-2.929-2.93-7.678-2.93-10.606,0c-2.929,2.929-2.929,7.677,0,10.606l73.67,73.67
			c1.464,1.465,3.384,2.197,5.303,2.197s3.839-0.732,5.303-2.197c2.929-2.929,2.929-7.677,0-10.606l-0.396-0.396l23.19-23.189
			C452.299,331.351,453.917,327.444,453.917,323.288z M289.797,107.134c-0.218-0.218-0.218-0.573,0-0.791l91.18-91.179
			c0.04-0.041,0.163-0.164,0.395-0.164s0.355,0.123,0.396,0.164l23.19,23.19l-91.97,91.97L289.797,107.134z M285.957,178.569
			c6.757,7.291,10.899,17.04,10.899,27.743v16.118c0,0.043,0,0.238,0.002,0.56h-5.178l-25.072-25.072L285.957,178.569z
			 M270.466,222.989h-28.931L256,208.523L270.466,222.989z M256,165.457c6.368,0,12.4,1.466,17.777,4.077L256,187.311
			l-17.777-17.777C243.601,166.923,249.633,165.457,256,165.457z M215.146,222.43v-16.118c0-10.702,4.142-20.451,10.9-27.743
			l19.348,19.349l-25.072,25.072h-5.178C215.145,222.642,215.146,222.446,215.146,222.43z M131.024,380.67
			c-0.041,0.041-0.164,0.164-0.395,0.164c-0.231,0-0.355-0.124-0.396-0.164l-23.19-23.19l91.97-91.969l23.19,23.19
			c0.218,0.218,0.218,0.573,0,0.791L131.024,380.67z M319.184,448.645h-22.89c-4.142,0-7.5,3.358-7.5,7.5c0,4.142,3.358,7.5,7.5,7.5
			h24.739V497H263.5v-8.618c0-4.142-3.358-7.5-7.5-7.5c-4.142,0-7.5,3.358-7.5,7.5V497h-57.532v-33.355h73.088
			c4.142,0,7.5-3.358,7.5-7.5c0-4.142-3.358-7.5-7.5-7.5h-71.238c7.811-36.287,13.741-78.68,17.651-126.206l22.342-22.341
			c6.065-6.066,6.065-15.937,0-22.004l-18.548-18.548c0.131-3.399,0.243-6.616,0.339-9.624l11.933-11.933h58.931l11.959,11.959
			C298.792,292.071,303.435,375.358,319.184,448.645z"/>
	</g>
</g>
<g>
	<g>
		<path d="M256,287.462c-4.142,0-7.5,3.358-7.5,7.5v8.06c0,4.142,3.358,7.5,7.5,7.5c4.142,0,7.5-3.358,7.5-7.5v-8.06
			C263.5,290.82,260.143,287.462,256,287.462z"/>
	</g>
</g>
<g>
	<g>
		<path d="M256,327.758c-4.142,0-7.5,3.358-7.5,7.5v8.06c0,4.142,3.358,7.5,7.5,7.5c4.142,0,7.5-3.358,7.5-7.5v-8.06
			C263.5,331.116,260.143,327.758,256,327.758z"/>
	</g>
</g>
<g>
</g>
<g>
</g>
<g>
</g>
<g>
</g>
<g>
</g>
<g>
</g>
<g>
</g>
<g>
</g>
<g>
</g>
<g>
</g>
<g>
</g>
<g>
</g>
<g>
</g>
<g>
</g>
<g>
</g>
</svg>
